<svg xmlns="http://www.w3.org/2000/svg" viewBox="0 0 98.02 58.9"><defs><style>.cls-1{fill:#bcc5c5;}</style></defs><title>Zasób 1</title><g id="Warstwa_2" data-name="Warstwa 2"><g id="Warstwa_1-2" data-name="Warstwa 1"><g id="Group_4420" data-name="Group 4420"><g id="Group_4383" data-name="Group 4383"><path id="Path_2058" data-name="Path 2058" class="cls-1" d="M48.33,6.76c-.49-.67-1-1.24-1.38-1.89a6.59,6.59,0,0,1-.81-1.77A1.49,1.49,0,0,1,47,1.15a1.45,1.45,0,0,1,.68-.1A3,3,0,0,0,49.9.37,2.34,2.34,0,0,1,52.15.22a9.67,9.67,0,0,1,1.77.72,22.93,22.93,0,0,1,8.91,8.73,4.44,4.44,0,0,1,.45.93,1.92,1.92,0,0,0,1.3,1.24l2.22.71c3.23,1,4.89,3.34,5.45,6.57a6.11,6.11,0,0,1,.07,1.76,3.56,3.56,0,0,1-2.16,2.9,9.42,9.42,0,0,1-3.62.82c-1.57.08-3.15.08-4.72.13a5.83,5.83,0,0,0-1.25.13c.28.08.57.16.84.26a2.91,2.91,0,0,1,1.87,1.75,1.93,1.93,0,0,1-.94,2.48,6.59,6.59,0,0,1-1.79.43.72.72,0,0,0-.6.37A15.48,15.48,0,0,1,49,37.85a15.7,15.7,0,0,1-17.24-9.6A14.36,14.36,0,0,1,31,18.8a.73.73,0,0,0-.11-.52,3.49,3.49,0,0,1,.81-4.86,3.59,3.59,0,0,1,1.79-.64,1,1,0,0,0,.62-.35,15.48,15.48,0,0,1,13.4-5.75A6.87,6.87,0,0,0,48.33,6.76Zm2-5.32c0,.05,0,.11,0,.17A18.9,18.9,0,0,1,56.48,6c2.39,2.39,4.27,5.08,4.26,6.13-.26-.36-.52-.73-.8-1.07a44,44,0,0,0-7-6.48A14.33,14.33,0,0,0,50.25,3a9.33,9.33,0,0,0-2.32-.66c-.53-.1-.69.1-.44.58A14.24,14.24,0,0,0,49,5.35a28.72,28.72,0,0,0,6.15,5.17c1,.66,2,1.26,3,1.9a3.46,3.46,0,0,1-2.28,1.42,3.76,3.76,0,0,1-2.1-.64c-1-.6-2-1.27-3-1.85a12,12,0,0,0-8.35-1.52A12.65,12.65,0,0,0,35.18,14a.63.63,0,0,1-.79.23,2.12,2.12,0,0,0-2.06,3.59.61.61,0,0,1,.2.75,11.71,11.71,0,0,0-.43,6.1A12.45,12.45,0,0,0,46.47,34.87a12.23,12.23,0,0,0,3.63-1.21,14.34,14.34,0,0,0,4.59-3.78A10,10,0,0,0,48,29a9.52,9.52,0,0,1,1-1.29c2.39-2.64,2.59-5.76.46-8.38a6.18,6.18,0,0,0-6.2-2.43,6,6,0,0,0-5,4.35,7.64,7.64,0,0,0,.42,5.22c.13.35.28.7.46,1.12-2.47-1.68-3-5.93-1.17-8.83a7.9,7.9,0,0,1,10.44-2.58,7.68,7.68,0,0,1,3.48,4.67,6.68,6.68,0,0,1-1.58,6.69c1,.15,1.51-.54,2.17-1s1-.79.61-1.54c0,0,0,0,0-.05h.05a1.07,1.07,0,0,1,.18.19,10.4,10.4,0,0,0,4.72,3,7.14,7.14,0,0,0,3.07.36c.41-.06.8-.19.92-.64a1,1,0,0,0-.48-1.07,5.73,5.73,0,0,0-1.32-.57A4.51,4.51,0,0,1,58.2,25a3.45,3.45,0,0,1-1-2.79c.64.92,1.15,2.06,2.59,1.33-.76-1.13-1-1.6-.91-2.3.4.38.78.74,1.19,1.1A4.39,4.39,0,0,0,63,23.47c.76,0,1.53,0,2.29,0a12.29,12.29,0,0,0,4.08-.67,2.51,2.51,0,0,0,1.76-2.65,5.16,5.16,0,0,0-.1-.87,6.44,6.44,0,0,0-4.6-5.49c-.42-.12-.82-.27-1.24-.38a4.75,4.75,0,0,1-3.29-2.7A20.26,20.26,0,0,0,53,1.9a5.14,5.14,0,0,0-1.56-.53,3.82,3.82,0,0,0-1.12.07Zm-6,57h-3.4v-14h3.43q1.53,0,3.06.12a4.51,4.51,0,0,1,3.9,5v.06a4.17,4.17,0,0,1-3.35,4,2.8,2.8,0,0,0,3.38,1.57v3.15a5.46,5.46,0,0,1-5.21-1.86c-.58-.7-1.13-1.42-1.81-2.26v4.13Zm0-6.94h1.3a5.71,5.71,0,0,0,.82-.09,1.84,1.84,0,0,0,1.49-1.87,1.73,1.73,0,0,0-1.45-1.82c-.7-.09-1.4-.14-2.11-.16a1.47,1.47,0,0,0,0,.29v3.65Z"/><path id="Path_2059" data-name="Path 2059" class="cls-1" d="M67.25,57.39v1.08h-3V47.35c0-2.24.8-3,3.11-2.82v4.26a4.53,4.53,0,0,1,2.33-1.11A5.12,5.12,0,0,1,75.46,52s0,.08,0,.12a6.49,6.49,0,0,1-.72,4.21,5.1,5.1,0,0,1-5.39,2.38,3.13,3.13,0,0,1-2.1-1.35Zm0-4.17a2.58,2.58,0,0,0,2.44,2.71h.1a2.64,2.64,0,0,0,2.62-2.66,2.58,2.58,0,0,0-5.16-.22Zm12.26-8.68v4.18a5,5,0,0,1,7,.88h0c2.44,3.13.88,8.13-2.83,9.09a4.12,4.12,0,0,1-4.33-1.22c0,.36,0,.66,0,1h-3V47.34c0-2.24.83-3,3.14-2.8ZM79.4,53.2a2.55,2.55,0,0,0,2.34,2.73h.16a2.61,2.61,0,0,0,2.63-2.59v0a2.57,2.57,0,0,0-2.44-2.7H82a2.54,2.54,0,0,0-2.59,2.49v.11Z"/><path id="Path_2060" data-name="Path 2060" class="cls-1" d="M16.26,49c.33-.88.54-1,1.45-1h1.61s.06,0,.12.06v10.4c-.78,0-1.55,0-2.32,0-.52,0-.69-.5-.83-.94A4.86,4.86,0,0,1,8.18,55a5.76,5.76,0,0,1,1.45-5.86,4.94,4.94,0,0,1,4.6-1.33,3.23,3.23,0,0,1,2,1.28Zm0,4.22a2.59,2.59,0,1,0-5.18-.12v.14a2.59,2.59,0,0,0,5.18.12Z"/><path id="Path_2061" data-name="Path 2061" class="cls-1" d="M59.68,49.07C60,48.14,60.2,48,61.16,48h1.68V58.49c-.73,0-1.44,0-2.15,0s-.86-.48-1-1A4.43,4.43,0,0,1,54,58.2a5.4,5.4,0,0,1-2.62-5.34,5.2,5.2,0,0,1,3-4.72,4.9,4.9,0,0,1,3.13-.41,3.16,3.16,0,0,1,2.11,1.34Zm-5.14,4.21a2.6,2.6,0,1,0,2.55-2.69,2.55,2.55,0,0,0-2.55,2.54Z"/><path id="Path_2062" data-name="Path 2062" class="cls-1" d="M35.44,52.58c1,1.93,2.1,3.54,4.61,3.17v2.79c-2.35,0-4.39-.59-5.78-2.65-.51-.76-1-1.53-1.57-2.41v5H29.57v-14c.36,0,.71,0,1.05,0a2.09,2.09,0,0,1,2.06,2.13v.1c0,1.47,0,2.94,0,4.42v.65c.84-1.09,1.62-2,2.31-3A1.56,1.56,0,0,1,36.56,48c.88.07,1.76,0,2.76,0l-3.88,4.55Z"/><path id="Path_2063" data-name="Path 2063" class="cls-1" d="M3.27,47.65H.1c-.42-2,.5-3.15,2.46-3.15H9.8v3.13H6.86v10.9A20.16,20.16,0,0,1,4.8,58.4a2.1,2.1,0,0,1-1.53-2.26c0-2.64,0-5.28,0-7.91ZM28.45,51H25.39c-.1-.62-.52-.79-1.08-.76-.36,0-.72.15-.73.52a1,1,0,0,0,.36.76,5,5,0,0,0,1.18.52c.58.21,1.18.38,1.77.59,2.57,1,2.2,4,.75,5.24a5.18,5.18,0,0,1-6.06.13,3.58,3.58,0,0,1-1.34-2.58h2c.24,0,.49,0,.73,0a.46.46,0,0,1,.54.34,1.26,1.26,0,0,0,1.7.49,1.44,1.44,0,0,0,.25-.18.72.72,0,0,0,0-1,.62.62,0,0,0-.18-.14,7.8,7.8,0,0,0-1.21-.56c-.6-.24-1.21-.43-1.79-.69-2.73-1.2-2.12-4-.51-5.13A4.89,4.89,0,0,1,27,48.35,3.37,3.37,0,0,1,28.45,51Z"/><path id="Path_2064" data-name="Path 2064" class="cls-1" d="M96,44.56V48h2v2.4H96v1.78c0,.55,0,1.11,0,1.66a1.38,1.38,0,0,0,1.25,1.5h.19c.16,0,.34,0,.54,0v3.07a4.54,4.54,0,0,1-5-3.24,8.11,8.11,0,0,1-.18-1.7c0-2.1,0-4.2,0-6.29s1-2.93,3.15-2.64Z"/><path id="Path_2065" data-name="Path 2065" class="cls-1" d="M91.65,48.07v10.4H88.53v-.56c0-2.42.06-4.85,0-7.27S90.06,47.8,91.65,48.07Z"/><path id="Path_2066" data-name="Path 2066" class="cls-1" d="M90.12,47.41a1.63,1.63,0,0,1-1.66-1.58v0a1.64,1.64,0,0,1,1.61-1.67h0a1.66,1.66,0,0,1,1.66,1.64,1.62,1.62,0,0,1-1.61,1.65Z"/><path id="Path_2067" data-name="Path 2067" class="cls-1" d="M67.15,16.48a.93.93,0,0,1-.91.95h0a1.4,1.4,0,0,1-1.36-1.35.87.87,0,0,1,.82-.94h.17A1.4,1.4,0,0,1,67.15,16.48Z"/></g></g></g></g></svg>