<svg xmlns="http://www.w3.org/2000/svg" viewBox="0 0 111.56 25.05"><defs><style>.cls-1{fill:#bcc5c5;}</style></defs><title>Zasób 3</title><g id="Warstwa_2" data-name="Warstwa 2"><g id="Warstwa_1-2" data-name="Warstwa 1"><g id="Group_4420" data-name="Group 4420"><g id="Group_4343" data-name="Group 4343"><g id="Group_4342" data-name="Group 4342"><path id="Path_2055" data-name="Path 2055" class="cls-1" d="M36,10.72A12.75,12.75,0,0,1,50.07.09a12.94,12.94,0,0,1,11.42,10.8C62.46,5.27,67.12.53,72.83.09A12.8,12.8,0,0,1,87,11.33c.88,6.76-4.83,13.09-11.42,13.62-5,.7-9.84-2.2-12.47-6.33L69.58,17c3,3.6,9.31,2.28,10.45-2.28q-18.58-.13-37.16,0C44,19.32,50.34,20.64,53.33,17c2.2.53,4.39,1,6.5,1.58-2.64,4.22-7.47,7-12.48,6.33C40.59,24.42,34.79,17.66,36,10.72ZM43,10.1q5.79.13,11.6,0C53.5,7.64,51.22,5.53,48.32,6,45.68,5.88,43.92,7.9,43,10.1Zm25.56,0q5.81.13,11.6,0C79.07,7.9,77.22,5.88,74.68,6c-2.91-.44-5.19,1.67-6.16,4.13Z"/></g><path id="Path_2056" data-name="Path 2056" class="cls-1" d="M0,.79c2.55,0,5,0,7.55.09C8.78,5.8,10,10.63,11.24,15.55c1.32-4.92,2.64-9.75,4-14.67h6.15c1.4,4.92,2.72,9.75,4,14.67C26.62,10.63,27.85,5.8,29.08.88h7.47c-2.46,7.81-4.92,15.55-7.47,23.36H22.31c-1.4-5.1-2.72-10.19-4.13-15.28-1.4,5.1-2.72,10.19-4.12,15.28H7.29C4.92,16.43,2.37,8.61,0,.79Z"/><path id="Path_2057" data-name="Path 2057" class="cls-1" d="M85.12.88h8.7l4,6.06c1.32-2,2.63-4,3.86-6.06h8.61c-2.64,3.6-5.45,7.2-8.09,10.8,3.17,4.13,6.24,8.35,9.4,12.48h-8.87c-1.58-2.46-3.25-4.84-4.83-7.2-1.67,2.37-3.34,4.83-4.92,7.2H84.25c3-4.22,6.06-8.35,9.13-12.48C90.66,8.08,87.76,4.57,85.12.88Z"/></g></g></g></g></svg>