<svg xmlns="http://www.w3.org/2000/svg" viewBox="0 0 123.57 27.62"><defs><style>.cls-1{fill:#bcc5c5;}</style></defs><title>Zasób 5</title><g id="Warstwa_2" data-name="Warstwa 2"><g id="Warstwa_1-2" data-name="Warstwa 1"><g id="Group_4420" data-name="Group 4420"><g id="wework"><path id="Union_7" data-name="Union 7" class="cls-1" d="M27.45,19.94c0-4.76,3.79-8.47,8.91-8.47C40.68,11.47,43,14,43,16.85c0,.71-.17,1.24-1.5,1.24H33.62c-1,0-1.06.09-1.06.7A5.49,5.49,0,0,0,38,24.36h.41a4.21,4.21,0,0,0,3.88-1.94.93.93,0,0,1,1,.77s0,.08,0,.11a8.11,8.11,0,0,1-7.24,4.33C30.53,27.62,27.45,24.09,27.45,19.94Zm5.38-4.06c0,.53.62.53,1.94.53h1.59A3.56,3.56,0,0,0,38,16.06c.18-.09.27-.53.27-.88a2,2,0,0,0-1.86-2,2.11,2.11,0,0,0-.35,0,3.26,3.26,0,0,0-3.26,2.73Zm37.94,3.88c-.09-5.38,4.59-8.38,9.53-8.38s9.26,2.74,9.26,8c0,5.47-4.41,8.12-9.53,8.12-4.85-.09-9.17-2.65-9.26-7.76Zm6-.88c0,4,1.41,6.88,3.79,6.88s3.18-2.47,3.09-5.82c0-3.62-1.23-6.79-3.53-6.79H80c-1.79,0-3.22,1.77-3.22,5.73ZM62.56,27.27c-.88-2-3-6.45-4.23-8.83-1.06,1.94-3.53,7-4.5,8.83-.27.26-.53.26-1,.26s-.71,0-1-.26c-2-4.24-4.06-8.56-6.09-12.53-.62-1.06-1-1.24-1.68-1.42l-.7-.17c-.27-.27-.27-1.15.08-1.33,1.68.09,3,.09,4.77.09h8.38c2.56,0,4.68,0,7.33-.09.44,0,.44,1.15.08,1.33l-.61.09c-1,.17-1.5.35-1.5.53a3,3,0,0,0,.35,1.14c.7,1.86,1.94,4.24,2.82,6.09,1-2.21,1.68-4.06,2.3-5.73a5.2,5.2,0,0,0,.35-1.5c0-.18-.35-.36-1.06-.53L66,13.06c-.26-.26-.26-1.15.18-1.32,1.32.08,2.38.08,3.35.08,1.24,0,2.3,0,3.18-.08a1,1,0,0,1,.09,1.32l-.44.18c-1.33.26-1.68.61-2.3,2-1.94,3.88-3.79,8-5.56,12-.26.26-.53.26-1,.26S62.83,27.53,62.56,27.27ZM51.45,13.85a4.87,4.87,0,0,0,.35,1.24c.53,1.32,2.2,4.68,2.91,5.91a26.08,26.08,0,0,0,2.21-4.5A6.29,6.29,0,0,0,57,15.35c0-.53-.71-1.76-1.5-1.85a14,14,0,0,0-1.94-.18C52.24,13.32,51.45,13.5,51.45,13.85ZM19.33,27.27c-.88-2-3-6.45-4.24-8.83-1.06,1.94-3.53,7-4.5,8.83-.26.26-.53.26-1,.26s-.7,0-1-.26c-1.94-4.24-4-8.56-6-12.45C2,13.77,1.68,13.59,1,13.41l-.79-.17c-.26-.27-.26-1.15.18-1.33C2,12,3.36,12,5.12,12h8.3c2.64,0,4.67,0,7.32-.09.44,0,.44,1.15.09,1.33H20.3c-1,.17-1.5.35-1.5.53a3,3,0,0,0,.35,1.14C20,16.77,21.09,19.15,22,21c1-2.2,1.67-4.06,2.29-5.73a4.62,4.62,0,0,0,.35-1.5c0-.18-.35-.36-1.06-.53l-.7-.18c-.27-.26-.27-1.15.17-1.32,1.42.09,2.39.09,3.36.09,1.23,0,2.29,0,3.17-.09a.93.93,0,0,1,.09,1.32l-.53.18c-1.32.26-1.67.61-2.29,2-1.94,3.79-3.8,7.94-5.56,12-.27.26-.53.26-1,.26S19.59,27.53,19.33,27.27ZM8.3,13.85a3.11,3.11,0,0,0,.35,1.24c.62,1.32,2.21,4.68,2.91,5.91.53-1.06,1.95-3.7,2.21-4.5a5.52,5.52,0,0,0,.09-1.15,2.54,2.54,0,0,0-1.5-1.85,12.61,12.61,0,0,0-1.94-.18C9.09,13.32,8.3,13.5,8.3,13.85ZM105.89,27c-1.86,0-3.62.09-5,.09-.36-.18-.36-1.06-.09-1.33l.79-.08c1.5-.18,1.68-.44,1.68-3.09V6c0-1.5,0-1.94-.88-2.38l-.71-.35a1,1,0,0,1,0-1.15A52.54,52.54,0,0,0,108,0a1,1,0,0,1,.71.26c-.09,1.5-.09,3.09-.09,5.48V17.56c0,.44.09.53.62.53A3.07,3.07,0,0,0,111.62,17l1.76-1.85c.8-.88,1-1.24,1-1.5s-.44-.36-.79-.36l-1.06-.17c-.35-.36-.35-1.15.09-1.33h1a62.48,62.48,0,0,0,7.85-.53c.44.18.44,1,.18,1.33l-1.33.26a7,7,0,0,0-2.73,1.33,14.86,14.86,0,0,0-2.74,2.2c-.17.27-.26.35-.26.53a1.55,1.55,0,0,0,.26.62c.71,1.23,4.41,6.35,5.47,7.15a4.6,4.6,0,0,0,2.47.88l.62.09a.88.88,0,0,1-.09,1.26l-.08.06c-1.32-.09-2.82-.09-5.2-.09s-4,.09-5.12.09a.89.89,0,0,1-.25-1.23l.07-.09.53-.09c.44-.09.62-.18.62-.27a3.53,3.53,0,0,0-.71-1.23L110.21,20a1.08,1.08,0,0,0-1.06-.53c-.26,0-.53.18-.53.88v2.21c0,2.64.18,2.91,1.59,3.08l.62.09a1,1,0,0,1,0,1.33C109.5,27,107.74,27,105.89,27Zm-12.62-.09c-1.68,0-3.53,0-4.85.09a.94.94,0,0,1,0-1.32l.79-.09c1.32-.09,1.5-.44,1.5-3.09V16.94h-.09c0-1.5,0-1.94-.79-2.38l-.62-.35a1,1,0,0,1,0-1.15,30,30,0,0,0,6.09-2.3c.35,0,.62.09.71.36-.09.79-.18,1.23-.18,1.59s.09.35.44.44c1.15-.62,2.3-1.86,4.06-1.86a2.2,2.2,0,0,1,2.29,2.11.34.34,0,0,1,0,.1A2.39,2.39,0,0,1,100.31,16a1.82,1.82,0,0,1-.33,0,2.39,2.39,0,0,1-1.59-.71c-1-.7-1.32-.79-1.59-.79-.62,0-.79.79-.79,2.29v5.83c0,2.65.17,2.91,1.5,3l1.32.09a1,1,0,0,1,0,1.32C96.8,26.91,95.21,26.91,93.27,26.91Z"/></g></g></g></g></svg>