<svg xmlns="http://www.w3.org/2000/svg" width="94.133" height="100" viewBox="0 0 94.133 100">
  <g id="Group_4401" data-name="Group 4401" transform="translate(0)">
    <path id="Path_2146" data-name="Path 2146" d="M79,52.317a1.638,1.638,0,0,0-.333-1.8L42,12.183a1.616,1.616,0,0,0-1.183-.517,1.66,1.66,0,0,0-1.2.483l-.483.483v-4.3A8.336,8.336,0,0,0,30.8,0H27.467a8.336,8.336,0,0,0-8.333,8.333V32.65L2.95,48.833a9.8,9.8,0,0,0,0,14.017l20,20a9.82,9.82,0,0,0,14.033,0l29.5-29.517H77.467A1.673,1.673,0,0,0,79,52.317ZM22.467,8.333a5.015,5.015,0,0,1,5-5H30.8a5.015,5.015,0,0,1,5,5v7.65L22.467,29.317ZM65.8,50a1.721,1.721,0,0,0-1.183.483l-30,30a6.629,6.629,0,0,1-9.317,0l-20-20a6.481,6.481,0,0,1,0-9.3L21.967,34.517h0L35.783,20.7V43.333a1.667,1.667,0,1,0,3.333,0V17.35l1.633-1.633L73.567,50Z" transform="translate(0)" fill="#7f8c8d"/>
    <path id="Path_2147" data-name="Path 2147" d="M55.6,38.81a1.744,1.744,0,0,0-2.9,0C51.647,40.643,42.48,56.893,42.48,62.977A11.277,11.277,0,0,0,54.147,74.643,11.277,11.277,0,0,0,65.813,62.977C65.813,56.91,56.63,40.643,55.6,38.81Zm-1.45,32.5a7.98,7.98,0,0,1-8.333-8.333c0-3.75,5.133-14,8.333-19.9,3.2,5.9,8.333,16.15,8.333,19.9A7.98,7.98,0,0,1,54.147,71.31Z" transform="translate(28.32 25.357)" fill="#70c84a"/>
  </g>
</svg>
