<svg id="Group_4400" data-name="Group 4400" xmlns="http://www.w3.org/2000/svg" width="60" height="100" viewBox="0 0 60 100">
  <path id="Path_2144" data-name="Path 2144" d="M23.15,28.89l-10-20a1.734,1.734,0,0,0-2.983,0l-10,20a.061.061,0,0,1-.017.05,1.947,1.947,0,0,0-.15.7v55c0,5.633,6.5,10,12.1,10,5.3,0,11.233-4.283,11.233-10v-55a1.663,1.663,0,0,0-.167-.7A.061.061,0,0,0,23.15,28.89ZM10,31.307v40H3.333v-40Zm10,0v40H13.333v-40ZM3.333,74.64H20v3.333H3.333Zm8.333-61.267,7.3,14.6H4.367ZM12.1,91.307c-3.867,0-8.767-3.133-8.767-6.667V81.307H20V84.64C20,88.39,15.75,91.307,12.1,91.307Z" transform="translate(0 5.36)" fill="#70c84a"/>
  <path id="Path_2145" data-name="Path 2145" d="M46.333,0H19.667A1.672,1.672,0,0,0,18,1.667V98.333A1.672,1.672,0,0,0,19.667,100H46.333A1.672,1.672,0,0,0,48,98.333V1.667A1.672,1.672,0,0,0,46.333,0ZM44.667,96.667H21.333V83.333h8.333a1.667,1.667,0,1,0,0-3.333H21.333V66.667h8.333a1.667,1.667,0,1,0,0-3.333H21.333V50h8.333a1.667,1.667,0,1,0,0-3.333H21.333V33.333h8.333a1.667,1.667,0,1,0,0-3.333H21.333V16.667h8.333a1.667,1.667,0,1,0,0-3.333H21.333v-10H44.667Z" transform="translate(12)" fill="#7f8c8d"/>
</svg>
