<svg id="logo_survicate" xmlns="http://www.w3.org/2000/svg" width="156" height="41.812" viewBox="0 0 156 41.812">
  <g id="Group_1" data-name="Group 1" transform="translate(39.091 26.212)">
    <path id="Path_1" data-name="Path 1" d="M45,39.512a6.353,6.353,0,0,0,3.628,1.542c.726,0,1.633-.272,1.633-1.179,0-1.814-6.893-1.723-6.893-6.349,0-2.812,2.358-4.626,5.351-4.626a6.95,6.95,0,0,1,4.9,1.723l-1.542,2.993a5.8,5.8,0,0,0-3.356-1.36c-.726,0-1.633.363-1.633,1.179,0,1.9,6.893,1.542,6.893,6.349,0,2.54-1.9,4.626-5.351,4.626A7.87,7.87,0,0,1,43.1,42.233Z" transform="translate(-43.1 -28.9)" fill="#29292a"/>
    <path id="Path_2" data-name="Path 2" d="M57.7,29.1h3.719v9.523a2.34,2.34,0,0,0,2.63,2.449c1.633,0,2.63-.816,2.63-2.449V29.1H70.4v9.523c0,3.356-2.54,5.8-6.349,5.8-3.9,0-6.349-2.358-6.349-5.8V29.1Z" transform="translate(-44.458 -28.919)" fill="#29292a"/>
    <path id="Path_3" data-name="Path 3" d="M75.4,29.1h5.26a7.993,7.993,0,0,1,2.993.363,4.339,4.339,0,0,1,2.812,4.353A4.4,4.4,0,0,1,84.2,37.9h0s.181.272.544.907l2.993,5.26H83.563l-2.721-5.079H79.119v5.079H75.4V29.1Zm5.351,6.893a1.7,1.7,0,0,0,1.9-1.814c0-1.179-.453-1.814-2.267-1.814h-1.27v3.628Z" transform="translate(-46.105 -28.919)" fill="#29292a"/>
    <path id="Path_4" data-name="Path 4" d="M89.2,29.1h4.081L96,37.626c.272.907.544,2.449.544,2.449h0s.272-1.451.544-2.449L99.812,29.1H103.8L98.451,44.156h-3.9Z" transform="translate(-47.388 -28.919)" fill="#29292a"/>
    <path id="Path_5" data-name="Path 5" d="M107.1,29.1h3.719V44.156H107.1Z" transform="translate(-49.053 -28.919)" fill="#29292a"/>
    <path id="Path_6" data-name="Path 6" d="M121.981,28.9a7.962,7.962,0,0,1,5.714,2.086L125.972,33.8a6.484,6.484,0,0,0-3.809-1.542,4.037,4.037,0,0,0-4.263,4.263,4.258,4.258,0,0,0,4.263,4.535,6.565,6.565,0,0,0,4.081-1.814l1.9,2.721a8.478,8.478,0,0,1-6.167,2.54A7.573,7.573,0,0,1,114,36.7,7.73,7.73,0,0,1,121.981,28.9Z" transform="translate(-49.695 -28.9)" fill="#29292a"/>
    <path id="Path_7" data-name="Path 7" d="M139.523,40.981h-4.716l-.907,3.174H130L135.17,29.1h3.9l5.17,15.056H140.43Zm-2.449-8.435s-.363,1.633-.635,2.63l-.907,2.9h2.993l-.816-2.9c-.272-1-.544-2.63-.635-2.63Z" transform="translate(-51.184 -28.919)" fill="#29292a"/>
    <path id="Path_8" data-name="Path 8" d="M149.426,32.274H144.8V29.1h12.97v3.174h-4.626V44.156h-3.719Z" transform="translate(-52.56 -28.919)" fill="#29292a"/>
    <path id="Path_9" data-name="Path 9" d="M161.2,29.1h9.523v3.174h-5.8V35h4.626V38.17h-4.626v2.812H171v3.174h-9.8Z" transform="translate(-54.086 -28.919)" fill="#29292a"/>
  </g>
  <g id="Group_3" data-name="Group 3">
    <path id="Path_10" data-name="Path 10" d="M24.381,32.621l-5.26-5.26L16.4,29.991l7.981,7.891L37.714,24.73,34.993,22.1Z" transform="translate(-1.526 -2.056)" fill="#f0c40f"/>
    <g id="Group_2" data-name="Group 2">
      <path id="Path_11" data-name="Path 11" d="M39.091,6.621a23.215,23.215,0,0,0-32.47,0L0,13.242H0l10.884,10.7,2.721-2.63h0L9.433,17.142l3.991-3.9-3.991-3.9a19.271,19.271,0,0,1,27.028,0h0l-3.991,3.9,6.621,6.621L45.8,13.242Z" fill="#29292a"/>
      <path id="Path_12" data-name="Path 12" d="M17.9,17.7l6.621,6.621L31.233,17.7H17.9Z" transform="translate(-1.665 -1.647)" fill="#29292a"/>
    </g>
  </g>
</svg>
