<svg xmlns="http://www.w3.org/2000/svg" width="100.009" height="100" viewBox="0 0 100.009 100">
  <g id="Group_4403" data-name="Group 4403" transform="translate(0.002 0)">
    <path id="Path_2150" data-name="Path 2150" d="M66.585,26.45l.2-.2a9.7,9.7,0,0,1-1.317-1.033,6.241,6.241,0,0,1-1.083-1.3l-.167.167A38.313,38.313,0,0,0,10.085,78.216l-9.6,9.6a1.675,1.675,0,0,0,1.183,2.85,1.707,1.707,0,0,0,1.183-.483l9.6-9.6a38.262,38.262,0,0,0,51.766,0l9.6,9.6a1.69,1.69,0,0,0,2.367,0,1.66,1.66,0,0,0,0-2.35l-9.6-9.6a38.283,38.283,0,0,0,0-51.783ZM38.335,87.333a35,35,0,1,1,23.5-60.866l-7.067,7.067A25.074,25.074,0,1,0,57.135,35.9L64.2,28.833a34.944,34.944,0,0,1-25.867,58.5Zm6.95-39.583a8.354,8.354,0,1,1-2.367-2.367M45.3,43a11.717,11.717,0,1,0,2.367,2.367l7.1-7.1a21.568,21.568,0,1,1-2.35-2.367Z" transform="translate(0 9.333)" fill="#7f8c8d"/>
    <path id="Path_2151" data-name="Path 2151" d="M85.683,10.684A1.666,1.666,0,0,0,84.333,10H76V1.667A1.66,1.66,0,0,0,73.816.084c-.85.283-21.05,7.017-23.733,18.283-.933,3.9.3,7.783,3.617,11.583L25.2,58.45a3.745,3.745,0,0,0-.867-.117,3.333,3.333,0,1,0,3.333,3.333,3.488,3.488,0,0,0-.117-.85l28.5-28.5c2.967,2.583,6,3.9,9.067,3.9,12.783,0,20.5-23.05,20.817-24.033A1.724,1.724,0,0,0,85.683,10.684ZM66,7.067A69.64,69.64,0,0,1,72.666,4.05v6.917L66,17.633ZM53.316,19.15c.967-4.05,5.017-7.533,9.35-10.2V20.967L56.05,27.583C53.55,24.7,52.666,21.917,53.316,19.15ZM65.1,32.883c-2.167,0-4.417-1-6.683-2.933l7.1-7.1h0l9.5-9.517h6.95C79.283,20.3,72.833,32.883,65.1,32.883Z" transform="translate(14.001 0)" fill="#70c84a"/>
  </g>
</svg>
