<svg xmlns="http://www.w3.org/2000/svg" xmlns:xlink="http://www.w3.org/1999/xlink" width="693.724" height="471.384" viewBox="0 0 693.724 471.384">
  <defs>
    <clipPath id="clip-path">
      <rect id="Rectangle_837" data-name="Rectangle 837" width="235" height="356" rx="4" transform="translate(126.136 48.144)" fill="#eceeee"/>
    </clipPath>
    <filter id="Rectangle_835" x="189" y="-31" width="433" height="230" filterUnits="userSpaceOnUse">
      <feOffset dy="30" input="SourceAlpha"/>
      <feGaussianBlur stdDeviation="33" result="blur"/>
      <feFlood flood-opacity="0.161"/>
      <feComposite operator="in" in2="blur"/>
      <feComposite in="SourceGraphic"/>
    </filter>
    <linearGradient id="linear-gradient" x1="0.982" y1="1" x2="0" y2="0.063" gradientUnits="objectBoundingBox">
      <stop offset="0" stop-color="#a8bd27"/>
      <stop offset="1" stop-color="#70c84a"/>
    </linearGradient>
    <filter id="Union_173" x="211.552" y="31.971" width="327.548" height="380.084" filterUnits="userSpaceOnUse">
      <feOffset dy="10" input="SourceAlpha"/>
      <feGaussianBlur stdDeviation="10" result="blur-2"/>
      <feFlood flood-color="#70c84a" flood-opacity="0.502"/>
      <feComposite operator="in" in2="blur-2"/>
      <feComposite in="SourceGraphic"/>
    </filter>
    <linearGradient id="linear-gradient-2" x1="0.74" y1="1" x2="0.77" gradientUnits="objectBoundingBox">
      <stop offset="0" stop-color="#70c84a"/>
      <stop offset="1" stop-color="#a8bd27"/>
    </linearGradient>
  </defs>
  <g id="Group_4398" data-name="Group 4398" transform="translate(-778 -239)">
    <g id="Group_4397" data-name="Group 4397" transform="translate(1202 317.841)">
      <path id="Path_2139" data-name="Path 2139" d="M173.563,154.606l8.975-27.257-18.045-12.394a71.714,71.714,0,0,0-1-15.671l16.383-15.006-12.869-25.6-21.749,4.179c-3.561-3.8-7.265-8.215-11.634-11.254l1.235-23.173-27.21-8.975L94.83,38.787A74.435,74.435,0,0,0,78.923,40.4l-15.1-16.05L38.179,37.362,42.31,59.206A72.78,72.78,0,0,0,31.626,71.078l-22.6-1L0,97.433l18.8,12.631a73.358,73.358,0,0,0,1.33,15.813L3.941,140.93l12.964,25.643,21.8-4.131c3.561,3.8,7.883,6.363,12.252,9.4l-.57,21.321L77.64,202.14l12.2-17.522a70.852,70.852,0,0,0,15.576-.712l14.958,16.525,25.548-12.821-4.179-21.749a69.935,69.935,0,0,0,9.925-12.062Zm-92.741-8.12a35.649,35.649,0,1,1,45.017-22.7A35.633,35.633,0,0,1,80.822,146.486Z" transform="translate(0 72.949)" fill="#f5f7f6"/>
      <path id="Path_2140" data-name="Path 2140" d="M130.771,115.06l14.1-14.009-7.265-13.344a50.28,50.28,0,0,0,4.321-10.02l14.863-4.131.095-19.9-14.768-4.274c-1-3.467-1.9-7.36-3.656-10.589l8.025-13.961-14.009-14.1L118.425,18.71a50.713,50.713,0,0,0-10.352-3.989L103.8,0H83.855L79.533,14.816A52.925,52.925,0,0,0,69.181,18.8l-13.676-7.74L41.4,25.073,49.047,38.8a47.44,47.44,0,0,0-4.131,10.21L30.147,53.232,30.1,73.177,44.916,77.45c1,3.467,2.849,6.411,4.654,9.687l-7.075,13.011,14.009,14.1,13.059-6.981a48.517,48.517,0,0,0,9.877,4.464l4.084,14.911,19.849.142,4.274-14.768a49.5,49.5,0,0,0,9.925-4.321ZM75.924,80.869a24.747,24.747,0,1,1,35,.142A24.706,24.706,0,0,1,75.924,80.869Z" transform="translate(112.834)" fill="#f5f7f6"/>
    </g>
    <ellipse id="Ellipse_144" data-name="Ellipse 144" cx="285" cy="3" rx="285" ry="3" transform="translate(778 704.384)" fill="#f6f8f8"/>
    <g id="Group_4385" data-name="Group 4385" transform="translate(695 196.426)">
      <g id="Group_4391" data-name="Group 4391" transform="translate(244.864 37.43)">
        <path id="Path_2104" data-name="Path 2104" d="M411.215,488.91H213.225a30.983,30.983,0,0,1-31.005-30.953V52.863A30.983,30.983,0,0,1,213.225,21.91h197.99A30.983,30.983,0,0,1,442.22,52.863V457.957A30.983,30.983,0,0,1,411.215,488.91Z" transform="translate(-68.084 -16.766)" fill="#dfe2e2"/>
        <rect id="Rectangle_833" data-name="Rectangle 833" width="235" height="351" rx="4" transform="translate(126.136 48.144)" fill="#fff"/>
        <ellipse id="Ellipse_142" data-name="Ellipse 142" cx="21.5" cy="21.538" rx="21.5" ry="21.538" transform="translate(223.136 414.144)" fill="#fff"/>
        <path id="Path_2107" data-name="Path 2107" d="M271.956,37.95H234.851a4.586,4.586,0,0,1-4.651-4.5h0a4.586,4.586,0,0,1,4.651-4.5h37.106a4.586,4.586,0,0,1,4.651,4.5h0A4.586,4.586,0,0,1,271.956,37.95Z" transform="translate(-9.064 -4.806)" fill="#fff"/>
        <g id="Mask_Group_40" data-name="Mask Group 40" clip-path="url(#clip-path)">
          <g transform="matrix(1, 0, 0, 1, -161.86, 5.14)" filter="url(#Rectangle_835)">
            <rect id="Rectangle_835-2" data-name="Rectangle 835" width="235" height="32" transform="translate(288 38)" fill="#fff"/>
          </g>
        </g>
        <g transform="matrix(1, 0, 0, 1, -161.86, 5.14)" filter="url(#Union_173)">
          <path id="Union_173-2" data-name="Union 173" d="M-7051.853,86.228a10.831,10.831,0,0,1-10.836-10.839v-41.7a10.83,10.83,0,0,1,10.836-10.839h41.7a10.832,10.832,0,0,1,10.839,10.839v41.7a10.846,10.846,0,0,1-10.839,10.839Zm-71.2,0a10.833,10.833,0,0,1-10.839-10.839v-41.7a10.832,10.832,0,0,1,10.839-10.839h41.7a10.832,10.832,0,0,1,10.839,10.839v41.7a10.859,10.859,0,0,1-10.839,10.839Zm-71.2,0a10.833,10.833,0,0,1-10.839-10.839v-41.7a10.832,10.832,0,0,1,10.839-10.839h41.7a10.831,10.831,0,0,1,10.838,10.839v41.7a10.858,10.858,0,0,1-10.838,10.839Zm142.393-71a10.83,10.83,0,0,1-10.836-10.839v-41.7a10.831,10.831,0,0,1,10.836-10.839h41.7a10.833,10.833,0,0,1,10.839,10.839v41.7a10.845,10.845,0,0,1-10.839,10.839Zm-71.2,0a10.832,10.832,0,0,1-10.839-10.839v-41.7a10.833,10.833,0,0,1,10.839-10.839h41.7a10.833,10.833,0,0,1,10.839,10.839v41.7a10.858,10.858,0,0,1-10.839,10.839Zm-71.2,0a10.832,10.832,0,0,1-10.839-10.839v-41.7a10.833,10.833,0,0,1,10.839-10.839h41.7a10.832,10.832,0,0,1,10.838,10.839v41.7a10.857,10.857,0,0,1-10.838,10.839Zm142.393-71.019a10.831,10.831,0,0,1-10.836-10.839v-41.7a10.83,10.83,0,0,1,10.836-10.839h41.7a10.832,10.832,0,0,1,10.839,10.839v41.7a10.846,10.846,0,0,1-10.839,10.839Zm-71.2,0a10.833,10.833,0,0,1-10.839-10.839v-41.7a10.832,10.832,0,0,1,10.839-10.839h41.7a10.832,10.832,0,0,1,10.839,10.839v41.7a10.859,10.859,0,0,1-10.839,10.839Zm-71.2,0a10.833,10.833,0,0,1-10.839-10.839v-41.7a10.832,10.832,0,0,1,10.839-10.839h41.7a10.831,10.831,0,0,1,10.838,10.839v41.7a10.858,10.858,0,0,1-10.838,10.839Zm130.57-71a10.83,10.83,0,0,1-10.837-10.839v-41.7a10.831,10.831,0,0,1,10.837-10.839h41.7a10.833,10.833,0,0,1,10.839,10.839v41.7a10.845,10.845,0,0,1-10.839,10.839Zm-101.917-18.622-6.877-41.106a10.841,10.841,0,0,1,8.907-12.475l41.126-6.857a10.838,10.838,0,0,1,12.473,8.907l6.858,41.126a10.821,10.821,0,0,1-8.887,12.455l-41.128,6.857a10.893,10.893,0,0,1-1.8.15A10.84,10.84,0,0,1-7165.593-145.414Zm-87.14-21.125-13.537-39.431a10.8,10.8,0,0,1,6.738-13.754l39.431-13.538a10.805,10.805,0,0,1,13.755,6.74l13.538,39.431a10.838,10.838,0,0,1-6.74,13.754l-39.431,13.538a10.8,10.8,0,0,1-3.524.593A10.809,10.809,0,0,1-7252.733-166.539Z" transform="translate(7508.42 285.83)" fill="url(#linear-gradient)"/>
        </g>
        <circle id="Ellipse_145" data-name="Ellipse 145" cx="11.5" cy="11.5" r="11.5" transform="translate(233.136 424.144)" fill="#dfe2e2"/>
      </g>
      <g id="Group_4396" data-name="Group 4396" transform="translate(139.399 136.079)">
        <g id="Group_4393" data-name="Group 4393" transform="translate(0 189.165)">
          <path id="Path_2120" data-name="Path 2120" d="M82.6,347.573l48.181-155.262,48.87,155.262h11.863L135.848,167.6H125.7L70.74,347.573Z" transform="translate(-70.74 -162.575)" fill="#dfe2e2"/>
          <g id="Group_4392" data-name="Group 4392" transform="translate(8.02 5.025)">
            <path id="Path_2121" data-name="Path 2121" d="M117.3,251.083H74.81l3.626-11.823H117.3Z" transform="translate(-74.81 -98.048)" fill="#dfe2e2"/>
            <path id="Path_2122" data-name="Path 2122" d="M123.975,228.054H82.14l4.217-13.794h37.618Z" transform="translate(-67.696 -122.313)" fill="#dfe2e2"/>
            <path id="Path_2123" data-name="Path 2123" d="M132.325,202.083H89.78l3.606-11.823h38.939Z" transform="translate(-60.28 -145.607)" fill="#dfe2e2"/>
            <path id="Path_2124" data-name="Path 2124" d="M99.873,347.573l48.161-155.262L196.9,347.573h11.863L153.118,167.6H142.969L88.01,347.573Z" transform="translate(-61.998 -167.6)" fill="#dfe2e2"/>
          </g>
          <rect id="Rectangle_836" data-name="Rectangle 836" width="68.478" height="13.006" transform="translate(42.387)" fill="#dfe2e2"/>
        </g>
        <g id="Group_4395" data-name="Group 4395" transform="translate(7.24)">
          <path id="Path_2125" data-name="Path 2125" d="M140.222,193.13l-11.232.256,10.227,33.8h0a8.738,8.738,0,0,0,3.685-11.193l-1.773-4a4.235,4.235,0,0,1,4.611-5.321h0Z" transform="translate(-21.444 51.369)" fill="#29292a"/>
          <path id="Path_2126" data-name="Path 2126" d="M108.044,208.337l5.6,11.784-36.121-.453h0a8.783,8.783,0,0,1,9.912-6.4l4.316.709a4.238,4.238,0,0,0,3.981-5.813h0Z" transform="translate(-71.4 65.956)" fill="#29292a"/>
          <path id="Path_2127" data-name="Path 2127" d="M116.557,151.12l28.4,8.079,28.4-8.079,45.106,22.7A15.634,15.634,0,0,1,225,195.537L199.321,249.57,193.212,233.9l9.912-40.614-58.152-14.74L99.826,197.8l12.789,65.916H97.481l-22.149-64.93a17.186,17.186,0,0,1,5.478-18.918Z" transform="translate(-74.414 10.595)" fill="#bcc5c5"/>
          <path id="Path_2128" data-name="Path 2128" d="M99.868,116.614a22.929,22.929,0,0,1,17.873-10.188c4.946-.315,36.475-.315,41.441,0a22.871,22.871,0,0,1,18.957,12.2c1.281,2.463,17.2,45.836,17.2,45.836a18.332,18.332,0,0,1-4.493,14.957l-11.587,12.907L167.2,142.232l-13.262,60.28H121.623l-10.208-60.28L96.971,192.087,85.68,179.239a18.4,18.4,0,0,1-4.375-14.957C81.305,164.322,97.977,119.511,99.868,116.614Z" transform="translate(-67.933 -33.013)" fill="#29292a"/>
          <g id="Group_4394" data-name="Group 4394" transform="translate(25.887 120.293)">
            <path id="Path_2129" data-name="Path 2129" d="M98.545,185.217h67.394a6.523,6.523,0,0,0,6.5-5.872l4.355-42.032a6.536,6.536,0,0,0-6.5-7.212h-76.2a6.541,6.541,0,0,0-6.5,7.232l4.454,42.032A6.536,6.536,0,0,0,98.545,185.217Z" transform="translate(-87.551 -130.1)" fill="url(#linear-gradient-2)"/>
            <path id="Path_2130" data-name="Path 2130" d="M107.3,146.914a5.734,5.734,0,1,0,5.734-5.734A5.727,5.727,0,0,0,107.3,146.914Z" transform="translate(-68.383 -119.346)" fill="#fff"/>
          </g>
          <path id="Path_2131" data-name="Path 2131" d="M153.157,95.678c.177-10.385-10.8-22.9-25.5-22.9a26.1,26.1,0,0,0-21.933,12.612l-.631,1.025a25.466,25.466,0,0,0-2.739,20.79l7.429,18.385.059,13.085h0a17.469,17.469,0,0,0,20.967.118l.158-.118.236-14.07,9.853-.02a12.629,12.629,0,0,0,12.434-12.631v-5.872Z" transform="translate(-48.35 -65.44)" fill="#ffdbac"/>
          <path id="Path_2132" data-name="Path 2132" d="M127.824,92.2a5.557,5.557,0,1,1-11.114,0" transform="translate(-33.363 -46.592)" fill="#fff"/>
          <path id="Path_2133" data-name="Path 2133" d="M117.394,107.412H99.876a27.835,27.835,0,0,1-1.636-9.124c0-14.208,9.38-24.928,22.819-28.278,14.563-3.646,29.677,3.311,34.761,18.031.315.946-.709,2.424-2.463,4.138a37.415,37.415,0,0,1-32.061,9.774l-1.537-.236Z" transform="translate(-51.289 -69.055)" fill="#f0c40f"/>
          <path id="Path_2134" data-name="Path 2134" d="M116.19,124.013V99.972l10.326-.02c2.325-.039,5.6-.729,5.6-1.852v25.913a7.964,7.964,0,0,1-7.961,7.961h0A7.952,7.952,0,0,1,116.19,124.013Z" transform="translate(-33.867 -40.865)" fill="#f0c40f"/>
          <path id="Path_2135" data-name="Path 2135" d="M98.24,139.106V84.422l10.326-.02c2.325-.039,5.6-.729,5.6-1.852v56.575a7.964,7.964,0,0,1-7.961,7.961h0A7.994,7.994,0,0,1,98.24,139.106Z" transform="translate(-51.289 -55.958)" fill="#f0c40f"/>
        </g>
      </g>
    </g>
    <path id="Path_2136" data-name="Path 2136" d="M196.725-35.033C121.86,2.229,257.011,142.743,154.849,116.22" transform="translate(817.27 379.411)" fill="rgba(112,200,74,0)" stroke="#70c84a" stroke-linecap="round" stroke-miterlimit="10" stroke-width="3" stroke-dasharray="10 15 10 15 10 15"/>
    <path id="Union_174" data-name="Union 174" d="M7.352,9.448A1.426,1.426,0,0,1,6.216,8.98L.419,2.726a1.7,1.7,0,0,1,0-2.273,1.415,1.415,0,0,1,2.108,0l4.826,5.2,4.826-5.2a1.415,1.415,0,0,1,2.108,0,1.7,1.7,0,0,1,0,2.274L8.488,8.98a1.433,1.433,0,0,1-1.054.471Z" transform="translate(1014.931 352.816) rotate(-132)" fill="#70c84a"/>
    <g id="Ellipse_146" data-name="Ellipse 146" transform="translate(968 492)" fill="#70c84a" stroke="#70c84a" stroke-width="1">
      <circle cx="4" cy="4" r="4" stroke="none"/>
      <circle cx="4" cy="4" r="3.5" fill="none"/>
    </g>
  </g>
</svg>
